<?xml version="1.0" standalone="no"?><svg xmlns="http://www.w3.org/2000/svg" viewBox="0 0 1440 320"><path fill="#abd7f0" fill-opacity="1" d="M0,64L26.7,74.7C53.3,85,107,107,160,96C213.3,85,267,43,320,69.3C373.3,96,427,192,480,218.7C533.3,245,587,203,640,192C693.3,181,747,203,800,202.7C853.3,203,907,181,960,176C1013.3,171,1067,181,1120,208C1173.3,235,1227,277,1280,277.3C1333.3,277,1387,235,1413,213.3L1440,192L1440,320L1413.3,320C1386.7,320,1333,320,1280,320C1226.7,320,1173,320,1120,320C1066.7,320,1013,320,960,320C906.7,320,853,320,800,320C746.7,320,693,320,640,320C586.7,320,533,320,480,320C426.7,320,373,320,320,320C266.7,320,213,320,160,320C106.7,320,53,320,27,320L0,320Z"></path></svg>